PathFileType	4	(X/Y/Z)	c:/Users/goper/Files/vsCode/490R/osim_files/A06/A06_Static.trc
DataRate	CameraRate	NumFrames	NumMarkers	Units                	OrigDataRate	OrigDataStartFrame	OrigNumFrames
120.00	120.00	8	36	mm	120.0	494	1315
                Frame#	Time	LPSIS			LASIS			LTH1			LTH2			LTH3			LTH4			LLFE			LMFE			LSH1			LSH2			LSH3			LSH4			LLMAL			LMMAL			LCAL			LMTP5			LTOE			LMTP1			RPSIS			RASIS			RTH1			RTH2			RTH3			RTH4			RLFE			RMFE			RSH1			RSH2			RSH3			RSH4			RLMAL			RMMAL			RCAL			RMTP1			RTOE			RMTP5		
		X1	Y1	Z1	X2	Y2	Z2	X3	Y3	Z3	X4	Y4	Z4	X5	Y5	Z5	X6	Y6	Z6	X7	Y7	Z7	X8	Y8	Z8	X9	Y9	Z9	X10	Y10	Z10	X11	Y11	Z11	X12	Y12	Z12	X13	Y13	Z13	X14	Y14	Z14	X15	Y15	Z15	X16	Y16	Z16	X17	Y17	Z17	X18	Y18	Z18	X19	Y19	Z19	X20	Y20	Z20	X21	Y21	Z21	X22	Y22	Z22	X23	Y23	Z23	X24	Y24	Z24	X25	Y25	Z25	X26	Y26	Z26	X27	Y27	Z27	X28	Y28	Z28	X29	Y29	Z29	X30	Y30	Z30	X31	Y31	Z31	X32	Y32	Z32	X33	Y33	Z33	X34	Y34	Z34	X35	Y35	Z35	X36	Y36	Z36

494	4.10833	-301.02612	986.09576	424.77551	-114.39247	949.36951	345.08649	-219.47130	599.47241	298.19522	-215.90924	556.86798	302.93304	-156.28497	594.64575	312.31165	-164.22313	552.59436	314.61594	-198.24251	480.60709	319.87503	-199.99579	470.48279	428.17343	-264.42822	390.02057	303.39517	-259.23666	344.44763	296.09943	-202.20404	389.95612	308.71585	-204.73383	348.01651	303.56613	-253.93034	92.66467	333.48822	-235.12096	110.92116	416.27386	-314.65082	78.01835	383.67761	-134.56192	42.11296	312.39709	-94.18988	62.28946	367.81201	-117.94772	55.22877	407.17264	-289.48373	996.73187	556.19629	-114.24781	953.36548	608.27032	-244.81277	601.40405	647.76636	-242.06122	557.59448	649.91290	-182.37634	597.25183	639.40424	-189.10777	553.35596	644.70337	-228.22603	440.06134	628.98926	-228.28122	437.68436	539.85754	-262.03415	286.27475	622.90039	-265.20572	238.72945	623.49023	-202.88959	277.82074	611.56445	-214.27304	230.81703	617.67444	-280.48599	102.63335	638.44037	-267.64737	101.46306	555.07690	-338.11389	81.15192	592.26581	-136.49680	53.86962	562.17780	-120.82410	65.17033	602.27936	-147.64073	51.74590	649.94879
495	4.11667	-300.22708	985.75134	424.85699	-114.40703	949.32996	345.09021	-219.45877	599.45929	298.20132	-215.88568	556.83984	302.92130	-156.27153	594.65076	312.33502	-164.19377	552.58350	314.63208	-198.23215	480.59988	319.88535	-199.90009	470.56378	428.12000	-264.42563	390.00818	303.38983	-259.23450	344.43948	296.10538	-202.20653	389.94775	308.71936	-204.74030	347.99612	303.57391	-253.93977	92.66510	333.48355	-235.05702	110.96916	416.22113	-314.64001	77.99167	383.67593	-134.51070	42.16339	312.35873	-94.13940	62.34906	367.74380	-117.86610	55.29770	407.08142	-289.49738	996.80945	556.10901	-114.17043	953.44275	608.24463	-244.75349	601.44818	647.72882	-241.91628	557.63904	649.93671	-182.31082	597.30463	639.36920	-189.02818	553.42139	644.65051	-228.20261	440.10907	628.95990	-228.29655	437.68646	539.85199	-262.15842	286.42780	622.97742	-265.16678	238.80402	623.43719	-202.84084	277.83585	611.54260	-214.18719	230.88800	617.59918	-280.42151	102.68976	638.37891	-267.65643	101.45428	555.07104	-338.08490	81.19859	592.19946	-136.50467	53.85286	562.16644	-120.79741	65.17027	602.26562	-147.61375	51.77319	649.88892
496	4.12500	-301.06961	986.05157	424.77847	-114.42378	949.35895	345.10422	-219.43811	599.46545	298.20956	-215.87367	556.86285	302.93036	-156.24638	594.66833	312.34875	-164.18510	552.60632	314.65643	-198.21831	480.62872	319.89331	-199.93144	470.61404	428.09634	-264.42944	390.02057	303.38928	-259.22989	344.44229	296.10379	-202.19826	389.97369	308.72742	-204.74768	348.01529	303.57455	-253.94958	92.66791	333.47302	-235.11279	111.01080	416.20709	-314.62906	77.99131	383.67926	-134.54359	42.19342	312.34384	-94.17603	62.40799	367.72604	-117.90241	55.35569	407.07199	-289.65308	996.86005	556.07867	-114.26823	953.45581	608.25793	-244.85660	601.47760	647.70795	-242.14017	557.68030	649.83282	-182.35222	597.32312	639.36176	-189.07437	553.46509	644.64874	-228.26505	440.14426	628.93787	-228.30612	437.68964	539.85919	-262.21954	286.46396	622.94916	-265.23901	238.83215	623.42157	-202.87766	277.88074	611.54022	-214.22437	230.92714	617.60175	-280.51456	102.74296	638.34198	-267.66946	101.46130	555.06555	-338.23102	81.29868	592.14600	-136.50581	53.87299	562.17249	-120.80730	65.18076	602.27228	-147.65353	51.80494	649.87354
497	4.13333	-301.08383	986.06250	424.77567	-114.41908	949.38074	345.11716	-219.42091	599.45612	298.20505	-215.86780	556.87964	302.93161	-156.25133	594.69598	312.36755	-164.18211	552.61945	314.67963	-198.23318	480.62567	319.91809	-199.90196	470.62888	428.10791	-264.43756	390.03799	303.40533	-259.24533	344.46249	296.10605	-202.20117	389.98126	308.73163	-204.75078	348.03970	303.58762	-253.93506	92.67825	333.47540	-235.08385	111.01967	416.20569	-314.63568	77.99647	383.67841	-134.53236	42.20870	312.35876	-94.16212	62.40807	367.73901	-117.85020	55.37704	407.07404	-289.55612	996.81390	556.08752	-114.26005	953.45996	608.27466	-244.80164	601.47284	647.72406	-244.04761	558.74121	648.41498	-182.38817	597.39502	639.57983	-189.05136	553.46381	644.66620	-228.23608	440.13947	628.95758	-228.31531	437.70670	539.86139	-262.18683	286.42862	622.96490	-265.20108	238.81833	623.43823	-202.84648	277.90683	611.55188	-214.21034	230.92776	617.60309	-280.46173	102.73329	638.35510	-267.65018	101.48153	555.07867	-338.10431	81.22823	592.17792	-136.50937	53.90149	562.17371	-120.81521	65.20151	602.28705	-147.58688	51.82370	649.87402
498	4.14167	-301.06229	986.06396	424.80145	-114.43285	949.38184	345.13361	-219.40620	599.45837	298.22040	-215.84042	556.88727	302.95029	-156.24590	594.68890	312.39053	-164.16371	552.61182	314.70593	-198.22456	480.62277	319.92511	-199.96298	470.56445	428.16119	-264.41910	390.02216	303.40671	-259.21417	344.45270	296.12683	-202.21013	389.96835	308.73376	-204.73529	348.02927	303.58087	-253.94623	92.68625	333.49368	-235.07811	110.96962	416.23657	-314.64801	78.00178	383.68674	-134.52739	42.18546	312.39111	-94.16014	62.35829	367.78357	-117.88999	55.31039	407.12759	-289.51437	996.75262	556.16302	-114.25670	953.41339	608.29510	-244.79684	601.41724	647.76129	-244.00093	558.69958	648.46387	-182.40092	597.33594	639.62103	-189.06200	553.41095	644.70300	-228.19777	440.09232	628.99054	-228.31155	437.69556	539.86371	-262.16171	286.39325	623.00092	-265.17166	238.76999	623.47876	-202.87651	277.85873	611.58026	-214.22594	230.86502	617.65253	-280.43558	102.69129	638.40778	-267.64264	101.47161	555.08807	-338.05322	81.14835	592.23401	-136.51389	53.89415	562.18042	-120.81568	65.18844	602.28680	-147.60185	51.78484	649.91357
499	4.15000	-301.05823	986.06140	424.79593	-114.43877	949.35681	345.14227	-219.41064	599.44196	298.21857	-215.81410	556.85242	302.95544	-156.21700	594.66766	312.40744	-164.16025	552.59473	314.72678	-198.20627	480.62085	319.94052	-200.01872	470.49759	428.19089	-264.41223	390.00635	303.42072	-259.23743	344.44846	296.13065	-202.18359	389.96042	308.73953	-204.71989	347.99655	303.59308	-253.94487	92.66692	333.49619	-235.12698	110.90485	416.26443	-314.62961	77.98008	383.68509	-134.56500	42.12542	312.42206	-94.21329	62.30211	367.81863	-117.93497	55.24353	407.17029	-289.58688	996.72003	556.18463	-114.34032	953.34918	608.32465	-244.85773	601.38013	647.79730	-242.09950	557.58508	649.93097	-182.41959	597.23059	639.44263	-189.13484	553.36188	644.73364	-228.24750	440.04147	629.01611	-228.31807	437.66861	539.87714	-262.22507	286.35339	623.03558	-265.20782	238.71199	623.51428	-202.93283	277.82401	611.60522	-214.26642	230.80135	617.68311	-280.47580	102.62422	638.43250	-267.65408	101.47228	555.08038	-338.13120	81.13312	592.27966	-136.49306	53.87533	562.19775	-120.83189	65.15561	602.29584	-147.65771	51.73838	649.95355
500	4.15833	-301.10010	986.06543	424.79706	-114.45914	949.32037	345.14120	-219.39180	599.43170	298.21091	-215.80969	556.84882	302.94354	-156.22078	594.65051	312.41748	-164.16199	552.58954	314.73572	-198.19125	480.61398	319.93021	-200.02051	470.47299	428.19977	-264.40945	389.99698	303.41858	-259.22623	344.43304	296.11719	-202.18140	389.95059	308.72736	-204.74008	347.98318	303.59125	-253.94124	92.66569	333.48892	-235.08748	110.88248	416.27728	-314.62039	77.98008	383.68240	-134.53065	42.11047	312.42307	-94.16866	62.30344	367.81171	-117.91312	55.22111	407.17502	-289.52094	996.67224	556.22314	-114.30633	953.35089	608.32330	-244.82910	601.37250	647.80743	-242.04431	557.57324	649.95416	-182.40520	597.23236	639.44501	-189.12918	553.34772	644.73663	-228.20029	440.04446	629.02203	-228.33505	437.68460	539.88135	-262.19312	286.33719	623.04187	-265.14896	238.71033	623.52271	-202.88370	277.80829	611.60144	-214.24991	230.78574	617.68225	-280.44193	102.59799	638.43585	-267.66595	101.45593	555.09521	-337.99606	81.07925	592.29437	-136.49042	53.87205	562.18701	-120.82410	65.16108	602.29089	-147.62640	51.72787	649.94366
501	4.16667	-301.11349	986.05310	424.79974	-114.49918	949.31982	345.13730	-219.35867	599.44110	298.19855	-215.79216	556.86005	302.94083	-156.22398	594.66492	312.42456	-164.15892	552.59302	314.72861	-198.19002	480.62366	319.93256	-200.00484	470.53625	428.18246	-264.40591	390.00238	303.39853	-259.20139	344.41696	296.11261	-202.17760	389.95657	308.72565	-204.72453	347.99442	303.57852	-253.91585	92.66762	333.46753	-235.09242	110.94218	416.24390	-314.64447	77.99883	383.67880	-134.52019	42.14325	312.38989	-94.17297	62.33192	367.78055	-117.90070	55.25941	407.12894	-289.57834	996.72205	556.19446	-114.32239	953.37683	608.30804	-244.83125	601.42645	647.78448	-241.97829	557.61206	649.99261	-182.40132	597.27325	639.42615	-189.12863	553.38574	644.72198	-228.22577	440.08862	629.01215	-228.33537	437.70761	539.86993	-262.17511	286.38901	623.02032	-265.17947	238.75877	623.50684	-202.88499	277.81723	611.57446	-214.26439	230.83482	617.66364	-280.46457	102.64143	638.40698	-267.64700	101.46896	555.08636	-338.06396	81.15398	592.24896	-136.49207	53.87903	562.17218	-120.83191	65.16705	602.27380	-147.63177	51.76238	649.91730
